<svg width="191" height="215" viewBox="0 0 191 215" fill="transparent" xmlns="http://www.w3.org/2000/svg">
<path d="M190.44 95.22C190.44 141.532 157.203 180.222 113.331 188.704V214.367L43.571 174.367L113.331 134.367V157.861C140.507 149.991 160.44 124.897 160.44 95.219C160.44 59.257 131.182 29.999 95.22 29.999C59.258 29.999 30 59.257 30 95.219C30 104.905 32.068 114.22 36.148 122.907L8.994 135.661C3.026 122.954 0 109.348 0 95.22C0.001 42.716 42.717 0 95.221 0C147.725 0 190.44 42.716 190.44 95.22Z" fill="#fafcfc"/>
</svg>
